<svg id="图层_1" data-name="图层 1" xmlns="http://www.w3.org/2000/svg" viewBox="0 0 460.87 88.76"><defs><style>.cls-1{fill:#fff;}</style></defs><path class="cls-1" d="M224.66,213.65c-7-10.62-19.1-12.69-27.27-12.88-7.18-.17-38.33-.2-56.48-.21-35.72,0-15.29,0-47.47,0v17.07c38.21,0,83.55-.09,103.4.21,3.55.06,7.06.41,9.85,2.89A8.35,8.35,0,0,1,209,229.8c-1.87,5.09-7,6.35-12.2,6.43-7.87.12-29.48.17-45.62.19-39.55.05-22.42,0-57.78,0v17c38.18,0,83.63-.07,103.4.21,6.17.09,12.69,2.24,12.69,9.11S203,271.91,196.84,272c-19.73.3-65.19.22-103.4.22v17c38.33,0,88.48.14,104-.22,8.17-.19,20.24-2.26,27.28-12.88A24.39,24.39,0,0,0,221,244.91,24.36,24.36,0,0,0,224.66,213.65Z" transform="translate(-93.44 -200.54)"/><path class="cls-1" d="M536.55,210.81c-11.66-8.37-24.32-9.55-34.59-9.79-10.11-.23-25.37-.34-38.86-.4-32.89-.13-13.12-.07-44.45-.07v17.12c33.34,0,56.73-.28,82.48.45,7.56.21,15.67,1,23,6.08a25.06,25.06,0,0,1,.11,41.44c-7.3,5.07-15.42,5.87-23,6.08-25.75.72-49.13.45-82.48.45l-.11,17.1c33.54,0,57.66.13,83.31-.47,10.27-.24,22.93-1.42,34.59-9.79a41.62,41.62,0,0,0,0-68.2Z" transform="translate(-93.44 -200.54)"/><path class="cls-1" d="M280.81,238.86c-8.93-.17-11.78-3.08-11.84-12-.06-8.22,0-18,0-26.32h-19.7c0,8.44-.16,25.54.17,33.79.64,16.06,5.91,21,22.31,21.61,11.36.39,20.4.26,36.12.25V239C295.25,239,290.12,239,280.81,238.86Z" transform="translate(-93.44 -200.54)"/><path class="cls-1" d="M378.46,227.18c-.07,8.67-2.89,11.51-11.84,11.68-4.28.09-15.5.13-24.74.15h-.09l-25.41,0v50.27h23.16V256.19h2.34v0c12.05,0,27.1-.06,32.79-.23,17.4-.53,22.7-5.44,23.34-21.65.08-2.16.14-4.9.17-7.91V200.55h-19.7C378.48,209.11,378.52,218.73,378.46,227.18Z" transform="translate(-93.44 -200.54)"/></svg>